<svg width="111" height="30" viewBox="0 0 111 30" fill="none" xmlns="http://www.w3.org/2000/svg">
<g clip-path="url(#clip0_14_6)">
<rect width="111" height="30" rx="5" fill="#94B9E4"/>
<path d="M20.4583 7.08334H12.5417C10.3555 7.08334 8.58334 8.85555 8.58334 11.0417V18.9583C8.58334 21.1445 10.3555 22.9167 12.5417 22.9167H20.4583C22.6445 22.9167 24.4167 21.1445 24.4167 18.9583V11.0417C24.4167 8.85555 22.6445 7.08334 20.4583 7.08334Z" stroke="#232946" stroke-width="2" stroke-linecap="round" stroke-linejoin="round"/>
<path d="M19.6667 14.5012C19.7644 15.1601 19.6518 15.833 19.3451 16.4242C19.0383 17.0154 18.5529 17.4949 17.958 17.7943C17.363 18.0938 16.6888 18.198 16.0312 18.0922C15.3736 17.9864 14.7661 17.6759 14.2951 17.2049C13.8241 16.7339 13.5136 16.1264 13.4078 15.4688C13.302 14.8112 13.4062 14.137 13.7057 13.542C14.0051 12.9471 14.4846 12.4617 15.0758 12.1549C15.667 11.8482 16.3399 11.7356 16.9988 11.8333C17.6708 11.933 18.293 12.2462 18.7734 12.7266C19.2538 13.207 19.567 13.8292 19.6667 14.5012Z" stroke="#232946" stroke-width="2" stroke-linecap="round" stroke-linejoin="round"/>
<path d="M20.8542 10.6458H20.8625" stroke="#232946" stroke-width="2" stroke-linecap="round" stroke-linejoin="round"/>
<path d="M38.0373 19.5V10.74H40.0053V19.5H38.0373ZM41.8897 19.5V12.924H43.4137V15.744H43.3057C43.3057 15.072 43.3897 14.512 43.5577 14.064C43.7337 13.616 43.9977 13.28 44.3497 13.056C44.7017 12.832 45.1297 12.72 45.6337 12.72H45.7177C46.4857 12.72 47.0697 12.972 47.4697 13.476C47.8777 13.972 48.0817 14.728 48.0817 15.744V19.5H46.1617V15.636C46.1617 15.284 46.0577 14.996 45.8497 14.772C45.6417 14.548 45.3617 14.436 45.0097 14.436C44.6497 14.436 44.3577 14.552 44.1337 14.784C43.9177 15.008 43.8097 15.304 43.8097 15.672V19.5H41.8897ZM52.2138 19.704C51.2778 19.704 50.5458 19.512 50.0178 19.128C49.4898 18.744 49.2098 18.204 49.1778 17.508H50.8818C50.9138 17.716 51.0378 17.904 51.2538 18.072C51.4778 18.232 51.8098 18.312 52.2498 18.312C52.5858 18.312 52.8618 18.256 53.0778 18.144C53.3018 18.024 53.4138 17.856 53.4138 17.64C53.4138 17.448 53.3298 17.296 53.1618 17.184C52.9938 17.064 52.6938 16.98 52.2618 16.932L51.7458 16.884C50.9538 16.804 50.3578 16.584 49.9578 16.224C49.5658 15.864 49.3698 15.404 49.3698 14.844C49.3698 14.38 49.4858 13.992 49.7178 13.68C49.9498 13.368 50.2698 13.132 50.6778 12.972C51.0938 12.812 51.5658 12.732 52.0938 12.732C52.9418 12.732 53.6258 12.92 54.1458 13.296C54.6658 13.664 54.9378 14.2 54.9618 14.904H53.2578C53.2258 14.688 53.1138 14.508 52.9218 14.364C52.7298 14.212 52.4458 14.136 52.0698 14.136C51.7738 14.136 51.5378 14.192 51.3618 14.304C51.1858 14.416 51.0978 14.568 51.0978 14.76C51.0978 14.944 51.1738 15.084 51.3258 15.18C51.4778 15.276 51.7258 15.344 52.0698 15.384L52.5858 15.432C53.3938 15.52 54.0218 15.744 54.4698 16.104C54.9178 16.464 55.1418 16.948 55.1418 17.556C55.1418 17.996 55.0218 18.38 54.7818 18.708C54.5418 19.028 54.2018 19.276 53.7618 19.452C53.3218 19.62 52.8058 19.704 52.2138 19.704ZM59.3738 19.584C58.7098 19.584 58.1738 19.504 57.7658 19.344C57.3578 19.176 57.0578 18.9 56.8658 18.516C56.6818 18.124 56.5898 17.596 56.5898 16.932V11.148H58.3778V17.004C58.3778 17.316 58.4578 17.556 58.6178 17.724C58.7858 17.884 59.0218 17.964 59.3258 17.964H60.2978V19.584H59.3738ZM55.5938 14.328V12.924H60.2978V14.328H55.5938ZM65.5375 19.5V17.556H65.2135V15.444C65.2135 15.108 65.1335 14.856 64.9735 14.688C64.8135 14.52 64.5575 14.436 64.2055 14.436C64.0295 14.436 63.7975 14.44 63.5095 14.448C63.2215 14.456 62.9255 14.468 62.6215 14.484C62.3175 14.5 62.0415 14.516 61.7935 14.532V12.912C61.9775 12.896 62.1935 12.88 62.4415 12.864C62.6895 12.848 62.9455 12.836 63.2095 12.828C63.4735 12.82 63.7215 12.816 63.9535 12.816C64.6255 12.816 65.1895 12.912 65.6455 13.104C66.1095 13.296 66.4615 13.588 66.7015 13.98C66.9415 14.364 67.0615 14.86 67.0615 15.468V19.5H65.5375ZM63.4375 19.668C62.9655 19.668 62.5495 19.584 62.1895 19.416C61.8375 19.248 61.5615 19.008 61.3615 18.696C61.1615 18.376 61.0615 17.996 61.0615 17.556C61.0615 17.076 61.1855 16.684 61.4335 16.38C61.6815 16.068 62.0295 15.84 62.4775 15.696C62.9255 15.544 63.4415 15.468 64.0255 15.468H65.4295V16.536H64.0135C63.6775 16.536 63.4175 16.62 63.2335 16.788C63.0575 16.948 62.9695 17.168 62.9695 17.448C62.9695 17.712 63.0575 17.928 63.2335 18.096C63.4175 18.256 63.6775 18.336 64.0135 18.336C64.2295 18.336 64.4215 18.3 64.5895 18.228C64.7655 18.148 64.9095 18.016 65.0215 17.832C65.1335 17.648 65.1975 17.392 65.2135 17.064L65.6695 17.544C65.6295 18 65.5175 18.384 65.3335 18.696C65.1575 19.008 64.9095 19.248 64.5895 19.416C64.2775 19.584 63.8935 19.668 63.4375 19.668ZM71.2825 22.116C70.9625 22.116 70.6345 22.104 70.2985 22.08C69.9625 22.056 69.6545 22.024 69.3745 21.984V20.364C69.6545 20.404 69.9625 20.436 70.2985 20.46C70.6425 20.492 70.9545 20.508 71.2345 20.508C71.7545 20.508 72.1745 20.448 72.4945 20.328C72.8225 20.208 73.0625 20.024 73.2145 19.776C73.3665 19.536 73.4425 19.224 73.4425 18.84V17.532L73.7905 16.764C73.7745 17.348 73.6585 17.848 73.4425 18.264C73.2345 18.68 72.9425 19 72.5665 19.224C72.1905 19.44 71.7425 19.548 71.2225 19.548C70.7745 19.548 70.3665 19.468 69.9985 19.308C69.6385 19.14 69.3305 18.908 69.0745 18.612C68.8185 18.316 68.6225 17.972 68.4865 17.58C68.3505 17.18 68.2825 16.748 68.2825 16.284V16.008C68.2825 15.544 68.3545 15.112 68.4985 14.712C68.6425 14.312 68.8505 13.964 69.1225 13.668C69.3945 13.372 69.7185 13.144 70.0945 12.984C70.4705 12.816 70.8865 12.732 71.3425 12.732C71.8705 12.732 72.3265 12.848 72.7105 13.08C73.1025 13.312 73.4105 13.652 73.6345 14.1C73.8585 14.548 73.9785 15.088 73.9945 15.72L73.7305 15.792V12.924H75.2545V18.72C75.2545 19.528 75.1105 20.18 74.8225 20.676C74.5345 21.172 74.0945 21.536 73.5025 21.768C72.9185 22 72.1785 22.116 71.2825 22.116ZM71.8225 17.928C72.1185 17.928 72.3865 17.864 72.6265 17.736C72.8665 17.6 73.0545 17.408 73.1905 17.16C73.3345 16.912 73.4065 16.612 73.4065 16.26V15.912C73.4065 15.568 73.3305 15.28 73.1785 15.048C73.0345 14.808 72.8425 14.628 72.6025 14.508C72.3625 14.38 72.1065 14.316 71.8345 14.316C71.5145 14.316 71.2305 14.392 70.9825 14.544C70.7345 14.696 70.5425 14.908 70.4065 15.18C70.2705 15.452 70.2025 15.772 70.2025 16.14C70.2025 16.516 70.2705 16.84 70.4065 17.112C70.5505 17.376 70.7425 17.58 70.9825 17.724C71.2305 17.86 71.5105 17.928 71.8225 17.928ZM76.917 19.5V12.924H78.441V15.744H78.405C78.405 14.816 78.601 14.1 78.993 13.596C79.393 13.092 79.969 12.84 80.721 12.84H80.973V14.496H80.493C79.965 14.496 79.557 14.64 79.269 14.928C78.981 15.208 78.837 15.616 78.837 16.152V19.5H76.917ZM85.8929 19.5V17.556H85.5689V15.444C85.5689 15.108 85.4889 14.856 85.3289 14.688C85.1689 14.52 84.9129 14.436 84.5609 14.436C84.3849 14.436 84.1529 14.44 83.8649 14.448C83.5769 14.456 83.2809 14.468 82.9769 14.484C82.6729 14.5 82.3969 14.516 82.1489 14.532V12.912C82.3329 12.896 82.5489 12.88 82.7969 12.864C83.0449 12.848 83.3009 12.836 83.5649 12.828C83.8289 12.82 84.0769 12.816 84.3089 12.816C84.9809 12.816 85.5449 12.912 86.0009 13.104C86.4649 13.296 86.8169 13.588 87.0569 13.98C87.2969 14.364 87.4169 14.86 87.4169 15.468V19.5H85.8929ZM83.7929 19.668C83.3209 19.668 82.9049 19.584 82.5449 19.416C82.1929 19.248 81.9169 19.008 81.7169 18.696C81.5169 18.376 81.4169 17.996 81.4169 17.556C81.4169 17.076 81.5409 16.684 81.7889 16.38C82.0369 16.068 82.3849 15.84 82.8329 15.696C83.2809 15.544 83.7969 15.468 84.3809 15.468H85.7849V16.536H84.3689C84.0329 16.536 83.7729 16.62 83.5889 16.788C83.4129 16.948 83.3249 17.168 83.3249 17.448C83.3249 17.712 83.4129 17.928 83.5889 18.096C83.7729 18.256 84.0329 18.336 84.3689 18.336C84.5849 18.336 84.7769 18.3 84.9449 18.228C85.1209 18.148 85.2649 18.016 85.3769 17.832C85.4889 17.648 85.5529 17.392 85.5689 17.064L86.0249 17.544C85.9849 18 85.8729 18.384 85.6889 18.696C85.5129 19.008 85.2649 19.248 84.9449 19.416C84.6329 19.584 84.2489 19.668 83.7929 19.668ZM89.0459 19.5V12.924H90.5699V15.756H90.4619C90.4619 15.084 90.5459 14.524 90.7139 14.076C90.8819 13.628 91.1339 13.292 91.4699 13.068C91.8059 12.836 92.2179 12.72 92.7059 12.72H92.7899C93.2859 12.72 93.6979 12.836 94.0259 13.068C94.3619 13.292 94.6139 13.628 94.7819 14.076C94.9579 14.524 95.0459 15.084 95.0459 15.756H94.5779C94.5779 15.084 94.6619 14.524 94.8299 14.076C95.0059 13.628 95.2619 13.292 95.5979 13.068C95.9339 12.836 96.3459 12.72 96.8339 12.72H96.9179C97.4139 12.72 97.8299 12.836 98.1659 13.068C98.5099 13.292 98.7699 13.628 98.9459 14.076C99.1219 14.524 99.2099 15.084 99.2099 15.756V19.5H97.2899V15.648C97.2899 15.288 97.1939 14.996 97.0019 14.772C96.8179 14.548 96.5539 14.436 96.2099 14.436C95.8659 14.436 95.5939 14.552 95.3939 14.784C95.1939 15.008 95.0939 15.308 95.0939 15.684V19.5H93.1619V15.648C93.1619 15.288 93.0659 14.996 92.8739 14.772C92.6899 14.548 92.4299 14.436 92.0939 14.436C91.7419 14.436 91.4659 14.552 91.2659 14.784C91.0659 15.008 90.9659 15.308 90.9659 15.684V19.5H89.0459Z" fill="#232946"/>
</g>
<defs>
<clipPath id="clip0_14_6">
<rect width="111" height="30" rx="5" fill="white"/>
</clipPath>
</defs>
</svg>
