<svg width="111" height="30" viewBox="0 0 111 30" fill="none" xmlns="http://www.w3.org/2000/svg">
<rect width="111" height="30" rx="5" fill="#94B9E4"/>
<path d="M12.1667 9.16667H24.8333C25.7042 9.16667 26.4167 9.87917 26.4167 10.75V20.25C26.4167 21.1208 25.7042 21.8333 24.8333 21.8333H12.1667C11.2958 21.8333 10.5833 21.1208 10.5833 20.25V10.75C10.5833 9.87917 11.2958 9.16667 12.1667 9.16667Z" stroke="#232946" stroke-width="2" stroke-linecap="round" stroke-linejoin="round"/>
<path d="M26.4167 10.75L18.5 16.2917L10.5833 10.75" stroke="#232946" stroke-width="2" stroke-linecap="round" stroke-linejoin="round"/>
<path d="M49.6031 19V10.24H51.5231V19H49.6031ZM51.2831 19V17.368H55.1111V19H51.2831ZM51.2831 15.364V13.732H54.8351V15.364H51.2831ZM51.2831 11.872V10.24H55.0271V11.872H51.2831ZM56.0846 16.456V14.752H61.1366V16.456H56.0846ZM62.5381 19V12.424H64.0621V15.256H63.9541C63.9541 14.584 64.0381 14.024 64.2061 13.576C64.3741 13.128 64.6261 12.792 64.9621 12.568C65.2981 12.336 65.7101 12.22 66.1981 12.22H66.2821C66.7781 12.22 67.1901 12.336 67.5181 12.568C67.8541 12.792 68.1061 13.128 68.2741 13.576C68.4501 14.024 68.5381 14.584 68.5381 15.256H68.0701C68.0701 14.584 68.1541 14.024 68.3221 13.576C68.4981 13.128 68.7541 12.792 69.0901 12.568C69.4261 12.336 69.8381 12.22 70.3261 12.22H70.4101C70.9061 12.22 71.3221 12.336 71.6581 12.568C72.0021 12.792 72.2621 13.128 72.4381 13.576C72.6141 14.024 72.7021 14.584 72.7021 15.256V19H70.7821V15.148C70.7821 14.788 70.6861 14.496 70.4941 14.272C70.3101 14.048 70.0461 13.936 69.7021 13.936C69.3581 13.936 69.0861 14.052 68.8861 14.284C68.6861 14.508 68.5861 14.808 68.5861 15.184V19H66.6541V15.148C66.6541 14.788 66.5581 14.496 66.3661 14.272C66.1821 14.048 65.9221 13.936 65.5861 13.936C65.2341 13.936 64.9581 14.052 64.7581 14.284C64.5581 14.508 64.4581 14.808 64.4581 15.184V19H62.5381ZM78.3109 19V17.056H77.9869V14.944C77.9869 14.608 77.9069 14.356 77.7469 14.188C77.5869 14.02 77.3309 13.936 76.9789 13.936C76.8029 13.936 76.5709 13.94 76.2829 13.948C75.9949 13.956 75.6989 13.968 75.3949 13.984C75.0909 14 74.8149 14.016 74.5669 14.032V12.412C74.7509 12.396 74.9669 12.38 75.2149 12.364C75.4629 12.348 75.7189 12.336 75.9829 12.328C76.2469 12.32 76.4949 12.316 76.7269 12.316C77.3989 12.316 77.9629 12.412 78.4189 12.604C78.8829 12.796 79.2349 13.088 79.4749 13.48C79.7149 13.864 79.8349 14.36 79.8349 14.968V19H78.3109ZM76.2109 19.168C75.7389 19.168 75.3229 19.084 74.9629 18.916C74.6109 18.748 74.3349 18.508 74.1349 18.196C73.9349 17.876 73.8349 17.496 73.8349 17.056C73.8349 16.576 73.9589 16.184 74.2069 15.88C74.4549 15.568 74.8029 15.34 75.2509 15.196C75.6989 15.044 76.2149 14.968 76.7989 14.968H78.2029V16.036H76.7869C76.4509 16.036 76.1909 16.12 76.0069 16.288C75.8309 16.448 75.7429 16.668 75.7429 16.948C75.7429 17.212 75.8309 17.428 76.0069 17.596C76.1909 17.756 76.4509 17.836 76.7869 17.836C77.0029 17.836 77.1949 17.8 77.3629 17.728C77.5389 17.648 77.6829 17.516 77.7949 17.332C77.9069 17.148 77.9709 16.892 77.9869 16.564L78.4429 17.044C78.4029 17.5 78.2909 17.884 78.1069 18.196C77.9309 18.508 77.6829 18.748 77.3629 18.916C77.0509 19.084 76.6669 19.168 76.2109 19.168ZM81.7759 19V12.424H83.6959V19H81.7759ZM80.8999 13.84V12.424H83.6959V13.84H80.8999ZM82.5199 11.776C82.1599 11.776 81.8919 11.684 81.7159 11.5C81.5479 11.308 81.4639 11.068 81.4639 10.78C81.4639 10.484 81.5479 10.244 81.7159 10.06C81.8919 9.868 82.1599 9.772 82.5199 9.772C82.8799 9.772 83.1439 9.868 83.3119 10.06C83.4879 10.244 83.5759 10.484 83.5759 10.78C83.5759 11.068 83.4879 11.308 83.3119 11.5C83.1439 11.684 82.8799 11.776 82.5199 11.776ZM85.5557 19V10.24H87.4877V19H85.5557ZM84.7757 11.656V10.24H87.4877V11.656H84.7757Z" fill="#232946"/>
</svg>
