<svg width="111" height="30" viewBox="0 0 111 30" fill="none" xmlns="http://www.w3.org/2000/svg">
<rect width="111" height="30" rx="5" fill="#94B9E4"/>
<path d="M22 12C23.1935 12 24.3381 12.4741 25.182 13.318C26.0259 14.1619 26.5 15.3065 26.5 16.5V21.75H23.5V16.5C23.5 16.1022 23.342 15.7206 23.0607 15.4393C22.7794 15.158 22.3978 15 22 15C21.6022 15 21.2206 15.158 20.9393 15.4393C20.658 15.7206 20.5 16.1022 20.5 16.5V21.75H17.5V16.5C17.5 15.3065 17.9741 14.1619 18.818 13.318C19.6619 12.4741 20.8065 12 22 12Z" stroke="#232946" stroke-width="2" stroke-linecap="round" stroke-linejoin="round"/>
<path d="M14.5 12.75H11.5V21.75H14.5V12.75Z" stroke="#232946" stroke-width="2" stroke-linecap="round" stroke-linejoin="round"/>
<path d="M13 10.5C13.8284 10.5 14.5 9.82843 14.5 9C14.5 8.17157 13.8284 7.5 13 7.5C12.1716 7.5 11.5 8.17157 11.5 9C11.5 9.82843 12.1716 10.5 13 10.5Z" stroke="#232946" stroke-width="2" stroke-linecap="round" stroke-linejoin="round"/>
<path d="M43.6422 20V11.24H45.6102V20H43.6422ZM45.3702 20V18.272H49.0422V20H45.3702ZM50.5376 20V13.424H52.4576V20H50.5376ZM49.6616 14.84V13.424H52.4576V14.84H49.6616ZM51.2816 12.776C50.9216 12.776 50.6536 12.684 50.4776 12.5C50.3096 12.308 50.2256 12.068 50.2256 11.78C50.2256 11.484 50.3096 11.244 50.4776 11.06C50.6536 10.868 50.9216 10.772 51.2816 10.772C51.6416 10.772 51.9056 10.868 52.0736 11.06C52.2496 11.244 52.3376 11.484 52.3376 11.78C52.3376 12.068 52.2496 12.308 52.0736 12.5C51.9056 12.684 51.6416 12.776 51.2816 12.776ZM54.2334 20V13.424H55.7574V16.244H55.6494C55.6494 15.572 55.7334 15.012 55.9014 14.564C56.0774 14.116 56.3414 13.78 56.6934 13.556C57.0454 13.332 57.4734 13.22 57.9774 13.22H58.0614C58.8294 13.22 59.4134 13.472 59.8134 13.976C60.2214 14.472 60.4254 15.228 60.4254 16.244V20H58.5054V16.136C58.5054 15.784 58.4014 15.496 58.1934 15.272C57.9854 15.048 57.7054 14.936 57.3534 14.936C56.9934 14.936 56.7014 15.052 56.4774 15.284C56.2614 15.508 56.1534 15.804 56.1534 16.172V20H54.2334ZM66.6935 20L64.6175 16.928H63.6935L66.3695 13.424H68.3855L65.8655 16.688L65.8895 15.752L68.8535 20H66.6935ZM62.0615 20V11.24H63.9815V20H62.0615ZM72.4915 20.228C71.9315 20.228 71.4355 20.132 71.0035 19.94C70.5795 19.748 70.2235 19.492 69.9355 19.172C69.6555 18.844 69.4395 18.48 69.2875 18.08C69.1435 17.672 69.0715 17.256 69.0715 16.832V16.592C69.0715 16.152 69.1435 15.732 69.2875 15.332C69.4395 14.924 69.6555 14.56 69.9355 14.24C70.2155 13.92 70.5635 13.668 70.9795 13.484C71.4035 13.292 71.8835 13.196 72.4195 13.196C73.1235 13.196 73.7155 13.356 74.1955 13.676C74.6835 13.988 75.0555 14.4 75.3115 14.912C75.5675 15.416 75.6955 15.968 75.6955 16.568V17.216H69.8755V16.124H74.5315L73.9075 16.628C73.9075 16.236 73.8515 15.9 73.7395 15.62C73.6275 15.34 73.4595 15.128 73.2355 14.984C73.0195 14.832 72.7475 14.756 72.4195 14.756C72.0835 14.756 71.7995 14.832 71.5675 14.984C71.3355 15.136 71.1595 15.36 71.0395 15.656C70.9195 15.944 70.8595 16.3 70.8595 16.724C70.8595 17.116 70.9155 17.46 71.0275 17.756C71.1395 18.044 71.3155 18.268 71.5555 18.428C71.7955 18.588 72.1075 18.668 72.4915 18.668C72.8435 18.668 73.1315 18.6 73.3555 18.464C73.5795 18.328 73.7315 18.16 73.8115 17.96H75.5755C75.4795 18.4 75.2915 18.792 75.0115 19.136C74.7315 19.48 74.3795 19.748 73.9555 19.94C73.5315 20.132 73.0435 20.228 72.4915 20.228ZM79.6798 20.216C79.2158 20.216 78.7918 20.132 78.4078 19.964C78.0318 19.796 77.7038 19.564 77.4238 19.268C77.1438 18.964 76.9278 18.608 76.7758 18.2C76.6318 17.792 76.5598 17.352 76.5598 16.88V16.604C76.5598 16.132 76.6278 15.692 76.7638 15.284C76.9078 14.876 77.1118 14.52 77.3758 14.216C77.6478 13.904 77.9718 13.664 78.3478 13.496C78.7238 13.32 79.1438 13.232 79.6078 13.232C80.1358 13.232 80.5918 13.348 80.9758 13.58C81.3598 13.804 81.6598 14.14 81.8758 14.588C82.0918 15.028 82.2118 15.572 82.2358 16.22L81.7318 15.752V11.24H83.6638V20H82.1398V17.276H82.4038C82.3798 17.9 82.2478 18.432 82.0078 18.872C81.7758 19.312 81.4598 19.648 81.0598 19.88C80.6598 20.104 80.1998 20.216 79.6798 20.216ZM80.1598 18.608C80.4558 18.608 80.7238 18.544 80.9638 18.416C81.2118 18.28 81.4078 18.084 81.5518 17.828C81.7038 17.572 81.7798 17.264 81.7798 16.904V16.46C81.7798 16.108 81.7038 15.812 81.5518 15.572C81.3998 15.332 81.1998 15.148 80.9518 15.02C80.7038 14.892 80.4358 14.828 80.1478 14.828C79.8278 14.828 79.5398 14.912 79.2838 15.08C79.0358 15.24 78.8398 15.464 78.6958 15.752C78.5518 16.032 78.4798 16.36 78.4798 16.736C78.4798 17.12 78.5518 17.452 78.6958 17.732C78.8398 18.012 79.0398 18.228 79.2958 18.38C79.5518 18.532 79.8398 18.608 80.1598 18.608ZM85.5373 20V11.24H87.5053V20H85.5373ZM89.3897 20V13.424H90.9137V16.244H90.8057C90.8057 15.572 90.8897 15.012 91.0577 14.564C91.2337 14.116 91.4977 13.78 91.8497 13.556C92.2017 13.332 92.6297 13.22 93.1337 13.22H93.2177C93.9857 13.22 94.5697 13.472 94.9697 13.976C95.3777 14.472 95.5817 15.228 95.5817 16.244V20H93.6617V16.136C93.6617 15.784 93.5577 15.496 93.3497 15.272C93.1417 15.048 92.8617 14.936 92.5097 14.936C92.1497 14.936 91.8577 15.052 91.6337 15.284C91.4177 15.508 91.3097 15.804 91.3097 16.172V20H89.3897Z" fill="#232946"/>
</svg>
