<svg width="111" height="30" viewBox="0 0 111 30" fill="none" xmlns="http://www.w3.org/2000/svg">
<rect width="111" height="30" rx="5" fill="#94B9E4"/>
<g clip-path="url(#clip0_14_2)">
<path d="M29.2083 8.375C28.4502 8.90975 27.6108 9.31875 26.7225 9.58625C26.2457 9.03803 25.612 8.64946 24.9072 8.4731C24.2024 8.29675 23.4604 8.34111 22.7816 8.60019C22.1029 8.85927 21.52 9.32056 21.1119 9.92169C20.7039 10.5228 20.4903 11.2348 20.5 11.9612V12.7529C19.1087 12.789 17.7302 12.4804 16.487 11.8547C15.2439 11.229 14.1748 10.3056 13.375 9.16666C13.375 9.16666 10.2083 16.2917 17.3333 19.4583C15.7029 20.5651 13.7607 21.12 11.7917 21.0417C18.9167 25 27.625 21.0417 27.625 11.9375C27.6243 11.717 27.6031 11.497 27.5617 11.2804C28.3696 10.4836 28.9398 9.47756 29.2083 8.375Z" stroke="#232946" stroke-width="2" stroke-linecap="round" stroke-linejoin="round"/>
</g>
<path d="M47.765 20V12.716H49.733V20H47.765ZM45.305 12.956V11.24H52.205V12.956H45.305ZM55.2548 20L56.4548 13.64H58.5548L59.9468 20H58.4588L57.0308 13.688H57.8828L56.5988 20H55.2548ZM54.7988 20L54.7868 18.404H56.1068L56.1188 20H54.7988ZM53.9348 20L52.1708 13.424H54.0548L55.6988 20H53.9348ZM58.9508 20L58.9628 18.404H60.2828V20H58.9508ZM59.4908 20L60.9548 13.424H62.7188L61.1348 20H59.4908ZM64.2173 20V13.424H66.1373V20H64.2173ZM63.3413 14.84V13.424H66.1373V14.84H63.3413ZM64.9613 12.776C64.6013 12.776 64.3333 12.684 64.1573 12.5C63.9893 12.308 63.9053 12.068 63.9053 11.78C63.9053 11.484 63.9893 11.244 64.1573 11.06C64.3333 10.868 64.6013 10.772 64.9613 10.772C65.3213 10.772 65.5853 10.868 65.7533 11.06C65.9293 11.244 66.0173 11.484 66.0173 11.78C66.0173 12.068 65.9293 12.308 65.7533 12.5C65.5853 12.684 65.3213 12.776 64.9613 12.776ZM70.9011 20.084C70.2371 20.084 69.7011 20.004 69.2931 19.844C68.8851 19.676 68.5851 19.4 68.3931 19.016C68.2091 18.624 68.1171 18.096 68.1171 17.432V11.648H69.9051V17.504C69.9051 17.816 69.9851 18.056 70.1451 18.224C70.3131 18.384 70.5491 18.464 70.8531 18.464H71.8251V20.084H70.9011ZM67.1211 14.828V13.424H71.8251V14.828H67.1211ZM76.1042 20.084C75.4402 20.084 74.9042 20.004 74.4962 19.844C74.0882 19.676 73.7882 19.4 73.5962 19.016C73.4122 18.624 73.3202 18.096 73.3202 17.432V11.648H75.1082V17.504C75.1082 17.816 75.1882 18.056 75.3482 18.224C75.5162 18.384 75.7522 18.464 76.0562 18.464H77.0282V20.084H76.1042ZM72.3242 14.828V13.424H77.0282V14.828H72.3242ZM81.3079 20.228C80.7479 20.228 80.2519 20.132 79.8199 19.94C79.3959 19.748 79.0399 19.492 78.7519 19.172C78.4719 18.844 78.2559 18.48 78.1039 18.08C77.9599 17.672 77.8879 17.256 77.8879 16.832V16.592C77.8879 16.152 77.9599 15.732 78.1039 15.332C78.2559 14.924 78.4719 14.56 78.7519 14.24C79.0319 13.92 79.3799 13.668 79.7959 13.484C80.2199 13.292 80.6999 13.196 81.2359 13.196C81.9399 13.196 82.5319 13.356 83.0119 13.676C83.4999 13.988 83.8719 14.4 84.1279 14.912C84.3839 15.416 84.5119 15.968 84.5119 16.568V17.216H78.6919V16.124H83.3479L82.7239 16.628C82.7239 16.236 82.6679 15.9 82.5559 15.62C82.4439 15.34 82.2759 15.128 82.0519 14.984C81.8359 14.832 81.5639 14.756 81.2359 14.756C80.8999 14.756 80.6159 14.832 80.3839 14.984C80.1519 15.136 79.9759 15.36 79.8559 15.656C79.7359 15.944 79.6759 16.3 79.6759 16.724C79.6759 17.116 79.7319 17.46 79.8439 17.756C79.9559 18.044 80.1319 18.268 80.3719 18.428C80.6119 18.588 80.9239 18.668 81.3079 18.668C81.6599 18.668 81.9479 18.6 82.1719 18.464C82.3959 18.328 82.5479 18.16 82.6279 17.96H84.3919C84.2959 18.4 84.1079 18.792 83.8279 19.136C83.5479 19.48 83.1959 19.748 82.7719 19.94C82.3479 20.132 81.8599 20.228 81.3079 20.228ZM85.7842 20V13.424H87.3082V16.244H87.2722C87.2722 15.316 87.4682 14.6 87.8602 14.096C88.2602 13.592 88.8362 13.34 89.5882 13.34H89.8402V14.996H89.3602C88.8322 14.996 88.4242 15.14 88.1362 15.428C87.8482 15.708 87.7042 16.116 87.7042 16.652V20H85.7842Z" fill="#232946"/>
<defs>
<clipPath id="clip0_14_2">
<rect width="19" height="19" fill="white" transform="translate(11 6)"/>
</clipPath>
</defs>
</svg>
