<svg width="111" height="30" viewBox="0 0 111 30" fill="none" xmlns="http://www.w3.org/2000/svg">
<rect width="111" height="30" rx="5" fill="#94B9E4"/>
<path d="M22.3769 8.61905C21.5476 7.78558 20.5599 7.12475 19.4712 6.6751C18.3826 6.22544 17.2149 5.99597 16.0362 6.00005C11.0975 6.00005 7.07236 10.005 7.07236 14.919C7.07236 16.494 7.48844 18.024 8.26633 19.374L7 24L11.7487 22.758C13.0603 23.469 14.5347 23.847 16.0362 23.847C20.9749 23.847 25 19.842 25 14.928C25 12.543 24.0683 10.302 22.3769 8.61905ZM16.0362 22.335C14.6975 22.335 13.3859 21.975 12.2372 21.3L11.9658 21.138L9.14372 21.876L9.89447 19.14L9.71357 18.861C8.96982 17.6793 8.5749 16.3133 8.57387 14.919C8.57387 10.833 11.9206 7.50305 16.0271 7.50305C18.0171 7.50305 19.8894 8.27705 21.2915 9.68104C21.9857 10.3686 22.5358 11.1864 22.91 12.0871C23.2842 12.9878 23.475 13.9534 23.4714 14.928C23.4894 19.014 20.1427 22.335 16.0362 22.335ZM20.1246 16.791C19.8985 16.683 18.795 16.143 18.596 16.062C18.3879 15.99 18.2432 15.954 18.0894 16.17C17.9357 16.395 17.5106 16.899 17.3839 17.043C17.2573 17.196 17.1216 17.214 16.8955 17.097C16.6693 16.989 15.9457 16.746 15.0955 15.99C14.4261 15.396 13.9829 14.667 13.8472 14.442C13.7206 14.217 13.8291 14.1 13.9467 13.983C14.0462 13.884 14.1729 13.722 14.2814 13.596C14.3899 13.47 14.4352 13.371 14.5075 13.227C14.5799 13.074 14.5437 12.948 14.4894 12.84C14.4352 12.732 13.9829 11.634 13.802 11.184C13.6211 10.752 13.4312 10.806 13.2955 10.797H12.8613C12.7075 10.797 12.4724 10.851 12.2643 11.076C12.0653 11.301 11.4864 11.841 11.4864 12.939C11.4864 14.037 12.2915 15.099 12.4 15.243C12.5085 15.396 13.9829 17.646 16.2261 18.609C16.7598 18.843 17.1759 18.978 17.5015 19.077C18.0352 19.248 18.5236 19.221 18.9126 19.167C19.3467 19.104 20.2422 18.627 20.4231 18.105C20.6131 17.583 20.6131 17.142 20.5497 17.043C20.4864 16.944 20.3508 16.899 20.1246 16.791Z" fill="#232946"/>
<path d="M39.0956 19.5L36.9356 10.74H38.9636L40.6556 18.18L40.2356 17.904H41.3276L40.8596 18.18L42.1676 11.064H43.7996L42.0836 19.5H39.0956ZM44.3156 19.5L42.4676 11.064H44.1836L45.6956 18.18L45.2396 17.904H46.2836L45.8876 18.18L47.3636 10.74H49.2836L47.3636 19.5H44.3156ZM50.4151 19.5V10.74H52.3351V15.792H52.0471C52.0471 15.128 52.1311 14.568 52.2991 14.112C52.4671 13.656 52.7151 13.312 53.0431 13.08C53.3711 12.84 53.7831 12.72 54.2791 12.72H54.3631C55.0911 12.72 55.6471 12.98 56.0311 13.5C56.4151 14.012 56.6071 14.764 56.6071 15.756V19.5H54.6871V15.636C54.6871 15.276 54.5791 14.988 54.3631 14.772C54.1551 14.548 53.8791 14.436 53.5351 14.436C53.1751 14.436 52.8831 14.552 52.6591 14.784C52.4431 15.016 52.3351 15.324 52.3351 15.708V19.5H50.4151ZM62.2152 19.5V17.556H61.8912V15.444C61.8912 15.108 61.8112 14.856 61.6512 14.688C61.4912 14.52 61.2352 14.436 60.8832 14.436C60.7072 14.436 60.4752 14.44 60.1872 14.448C59.8992 14.456 59.6032 14.468 59.2992 14.484C58.9952 14.5 58.7192 14.516 58.4712 14.532V12.912C58.6552 12.896 58.8712 12.88 59.1192 12.864C59.3672 12.848 59.6232 12.836 59.8872 12.828C60.1512 12.82 60.3992 12.816 60.6312 12.816C61.3032 12.816 61.8672 12.912 62.3232 13.104C62.7872 13.296 63.1392 13.588 63.3792 13.98C63.6192 14.364 63.7392 14.86 63.7392 15.468V19.5H62.2152ZM60.1152 19.668C59.6432 19.668 59.2272 19.584 58.8672 19.416C58.5152 19.248 58.2392 19.008 58.0392 18.696C57.8392 18.376 57.7392 17.996 57.7392 17.556C57.7392 17.076 57.8632 16.684 58.1112 16.38C58.3592 16.068 58.7072 15.84 59.1552 15.696C59.6032 15.544 60.1192 15.468 60.7032 15.468H62.1072V16.536H60.6912C60.3552 16.536 60.0952 16.62 59.9112 16.788C59.7352 16.948 59.6472 17.168 59.6472 17.448C59.6472 17.712 59.7352 17.928 59.9112 18.096C60.0952 18.256 60.3552 18.336 60.6912 18.336C60.9072 18.336 61.0992 18.3 61.2672 18.228C61.4432 18.148 61.5872 18.016 61.6992 17.832C61.8112 17.648 61.8752 17.392 61.8912 17.064L62.3472 17.544C62.3072 18 62.1952 18.384 62.0112 18.696C61.8352 19.008 61.5872 19.248 61.2672 19.416C60.9552 19.584 60.5712 19.668 60.1152 19.668ZM68.3562 19.584C67.6922 19.584 67.1562 19.504 66.7482 19.344C66.3402 19.176 66.0402 18.9 65.8482 18.516C65.6642 18.124 65.5722 17.596 65.5722 16.932V11.148H67.3602V17.004C67.3602 17.316 67.4402 17.556 67.6002 17.724C67.7682 17.884 68.0042 17.964 68.3082 17.964H69.2802V19.584H68.3562ZM64.5762 14.328V12.924H69.2802V14.328H64.5762ZM73.0204 19.704C72.0844 19.704 71.3524 19.512 70.8244 19.128C70.2964 18.744 70.0164 18.204 69.9844 17.508H71.6884C71.7204 17.716 71.8444 17.904 72.0604 18.072C72.2844 18.232 72.6164 18.312 73.0564 18.312C73.3924 18.312 73.6684 18.256 73.8844 18.144C74.1084 18.024 74.2204 17.856 74.2204 17.64C74.2204 17.448 74.1364 17.296 73.9684 17.184C73.8004 17.064 73.5004 16.98 73.0684 16.932L72.5524 16.884C71.7604 16.804 71.1644 16.584 70.7644 16.224C70.3724 15.864 70.1764 15.404 70.1764 14.844C70.1764 14.38 70.2924 13.992 70.5244 13.68C70.7564 13.368 71.0764 13.132 71.4844 12.972C71.9004 12.812 72.3724 12.732 72.9004 12.732C73.7484 12.732 74.4324 12.92 74.9524 13.296C75.4724 13.664 75.7444 14.2 75.7684 14.904H74.0644C74.0324 14.688 73.9204 14.508 73.7284 14.364C73.5364 14.212 73.2524 14.136 72.8764 14.136C72.5804 14.136 72.3444 14.192 72.1684 14.304C71.9924 14.416 71.9044 14.568 71.9044 14.76C71.9044 14.944 71.9804 15.084 72.1324 15.18C72.2844 15.276 72.5324 15.344 72.8764 15.384L73.3924 15.432C74.2004 15.52 74.8284 15.744 75.2764 16.104C75.7244 16.464 75.9484 16.948 75.9484 17.556C75.9484 17.996 75.8284 18.38 75.5884 18.708C75.3484 19.028 75.0084 19.276 74.5684 19.452C74.1284 19.62 73.6124 19.704 73.0204 19.704ZM81.1644 19.5V17.556H80.8404V15.444C80.8404 15.108 80.7604 14.856 80.6004 14.688C80.4404 14.52 80.1844 14.436 79.8324 14.436C79.6564 14.436 79.4244 14.44 79.1364 14.448C78.8484 14.456 78.5524 14.468 78.2484 14.484C77.9444 14.5 77.6684 14.516 77.4204 14.532V12.912C77.6044 12.896 77.8204 12.88 78.0684 12.864C78.3164 12.848 78.5724 12.836 78.8364 12.828C79.1004 12.82 79.3484 12.816 79.5804 12.816C80.2524 12.816 80.8164 12.912 81.2724 13.104C81.7364 13.296 82.0884 13.588 82.3284 13.98C82.5684 14.364 82.6884 14.86 82.6884 15.468V19.5H81.1644ZM79.0644 19.668C78.5924 19.668 78.1764 19.584 77.8164 19.416C77.4644 19.248 77.1884 19.008 76.9884 18.696C76.7884 18.376 76.6884 17.996 76.6884 17.556C76.6884 17.076 76.8124 16.684 77.0604 16.38C77.3084 16.068 77.6564 15.84 78.1044 15.696C78.5524 15.544 79.0684 15.468 79.6524 15.468H81.0564V16.536H79.6404C79.3044 16.536 79.0444 16.62 78.8604 16.788C78.6844 16.948 78.5964 17.168 78.5964 17.448C78.5964 17.712 78.6844 17.928 78.8604 18.096C79.0444 18.256 79.3044 18.336 79.6404 18.336C79.8564 18.336 80.0484 18.3 80.2164 18.228C80.3924 18.148 80.5364 18.016 80.6484 17.832C80.7604 17.648 80.8244 17.392 80.8404 17.064L81.2964 17.544C81.2564 18 81.1444 18.384 80.9604 18.696C80.7844 19.008 80.5364 19.248 80.2164 19.416C79.9044 19.584 79.5204 19.668 79.0644 19.668ZM84.3174 21.9V12.924H85.8414V15.768L85.6374 15.756C85.6694 15.1 85.8054 14.548 86.0454 14.1C86.2854 13.644 86.6094 13.304 87.0174 13.08C87.4254 12.848 87.8854 12.732 88.3974 12.732C88.8534 12.732 89.2654 12.816 89.6334 12.984C90.0094 13.152 90.3294 13.388 90.5934 13.692C90.8654 13.988 91.0694 14.34 91.2054 14.748C91.3494 15.148 91.4214 15.588 91.4214 16.068V16.344C91.4214 16.816 91.3534 17.26 91.2174 17.676C91.0814 18.084 90.8814 18.44 90.6174 18.744C90.3614 19.048 90.0454 19.288 89.6694 19.464C89.3014 19.632 88.8774 19.716 88.3974 19.716C87.9014 19.716 87.4534 19.616 87.0534 19.416C86.6614 19.208 86.3454 18.896 86.1054 18.48C85.8654 18.056 85.7334 17.52 85.7094 16.872L86.2374 17.592V21.9H84.3174ZM87.8574 18.108C88.1854 18.108 88.4694 18.028 88.7094 17.868C88.9574 17.708 89.1494 17.484 89.2854 17.196C89.4214 16.908 89.4894 16.576 89.4894 16.2C89.4894 15.824 89.4214 15.496 89.2854 15.216C89.1494 14.936 88.9614 14.72 88.7214 14.568C88.4814 14.408 88.1934 14.328 87.8574 14.328C87.5694 14.328 87.2974 14.396 87.0414 14.532C86.7854 14.668 86.5774 14.864 86.4174 15.12C86.2654 15.368 86.1894 15.672 86.1894 16.032V16.476C86.1894 16.82 86.2694 17.116 86.4294 17.364C86.5974 17.604 86.8094 17.788 87.0654 17.916C87.3214 18.044 87.5854 18.108 87.8574 18.108ZM92.7549 21.9V12.924H94.2789V15.768L94.0749 15.756C94.1069 15.1 94.2429 14.548 94.4829 14.1C94.7229 13.644 95.0469 13.304 95.4549 13.08C95.8629 12.848 96.3229 12.732 96.8349 12.732C97.2909 12.732 97.7029 12.816 98.0709 12.984C98.4469 13.152 98.7669 13.388 99.0309 13.692C99.3029 13.988 99.5069 14.34 99.6429 14.748C99.7869 15.148 99.8589 15.588 99.8589 16.068V16.344C99.8589 16.816 99.7909 17.26 99.6549 17.676C99.5189 18.084 99.3189 18.44 99.0549 18.744C98.7989 19.048 98.4829 19.288 98.1069 19.464C97.7389 19.632 97.3149 19.716 96.8349 19.716C96.3389 19.716 95.8909 19.616 95.4909 19.416C95.0989 19.208 94.7829 18.896 94.5429 18.48C94.3029 18.056 94.1709 17.52 94.1469 16.872L94.6749 17.592V21.9H92.7549ZM96.2949 18.108C96.6229 18.108 96.9069 18.028 97.1469 17.868C97.3949 17.708 97.5869 17.484 97.7229 17.196C97.8589 16.908 97.9269 16.576 97.9269 16.2C97.9269 15.824 97.8589 15.496 97.7229 15.216C97.5869 14.936 97.3989 14.72 97.1589 14.568C96.9189 14.408 96.6309 14.328 96.2949 14.328C96.0069 14.328 95.7349 14.396 95.4789 14.532C95.2229 14.668 95.0149 14.864 94.8549 15.12C94.7029 15.368 94.6269 15.672 94.6269 16.032V16.476C94.6269 16.82 94.7069 17.116 94.8669 17.364C95.0349 17.604 95.2469 17.788 95.5029 17.916C95.7589 18.044 96.0229 18.108 96.2949 18.108Z" fill="#232946"/>
</svg>
